M48
; DRILL file {KiCad 5.1.7-a382d34a8~88~ubuntu16.04.1} date Thu Sep  9 22:42:57 2021
; FORMAT={-:-/ absolute / metric / decimal}
; #@! TF.CreationDate,2021-09-09T22:42:57+02:00
; #@! TF.GenerationSoftware,Kicad,Pcbnew,5.1.7-a382d34a8~88~ubuntu16.04.1
; #@! TF.FileFunction,Plated,1,2,PTH
FMAT,2
METRIC
T1C0.400
T2C0.600
T3C1.000
T4C6.000
T5C6.500
%
G90
G05
T1
X133.25Y-90.25
X133.25Y-91.75
X133.25Y-93.25
X133.25Y-94.75
X133.25Y-96.5
X134.5Y-90.25
X134.5Y-91.75
X134.5Y-93.25
X134.5Y-94.75
X134.5Y-96.5
X135.75Y-90.25
X135.75Y-91.75
X135.75Y-93.25
X135.75Y-94.75
X135.75Y-96.5
X138.5Y-90.25
X138.5Y-92.0
X138.5Y-93.5
X138.5Y-95.0
X138.5Y-96.5
X139.75Y-90.25
X139.75Y-92.0
X139.75Y-93.5
X139.75Y-95.0
X139.75Y-96.5
X141.0Y-90.25
X141.0Y-92.0
X141.0Y-93.5
X141.0Y-95.0
X141.0Y-96.5
T2
X143.5Y-92.0
X144.818Y-88.818
X144.818Y-95.182
X148.0Y-87.5
X148.0Y-96.5
X151.182Y-88.818
X151.182Y-95.182
X152.5Y-92.0
X121.5Y-92.0
X122.818Y-88.818
X122.818Y-95.182
X126.0Y-87.5
X126.0Y-96.5
X129.182Y-88.818
X129.182Y-95.182
X130.5Y-92.0
T3
X116.0Y-64.0
X118.0Y-60.0
X118.0Y-68.0
X122.0Y-58.0
X122.0Y-70.0
X126.0Y-60.0
X126.0Y-68.0
X128.0Y-64.0
X146.0Y-64.0
X148.0Y-60.0
X148.0Y-68.0
X152.0Y-58.0
X152.0Y-70.0
X156.0Y-60.0
X156.0Y-68.0
X158.0Y-64.0
T4
X148.0Y-92.0
X126.0Y-92.0
T5
X151.9Y-63.9
X122.0Y-64.0
T0
M30
